# xmcd
# Track frame offsets:
# 150
# 16330
# 29565
# 44655
# 63905
# 78910
# 91977
# 105450
# 118627
# 133537
# 145155
# 161537
# 175732
# 190292
# 205530
# 223325
# 237225
# 253477
#
# Disc length: 3579 seconds
# Revision: 0
# Processed by: cddbd v1.4PL0 Copyright (c) Steve Scherf et al.
# Submitted via: VisiTrax 2.9.5.180 - For more info visit www.synapsa.com
#
DISCID=fe0df912
DTITLE=Don Williams - The Masters
DYEAR=1900
DGENRE=Misc
TTITLE0=I've Been Loved By The Best
TTITLE1=One Good Well
TTITLE2=Just As Long As I Have You
TTITLE3=Maybe That's All It Takes
TTITLE4=Back In My Younger Days
TTITLE5=True Love
TTITLE6=Lord Have Mercy On A Country Boy
TTITLE7=Too Much Love
TTITLE8=It's Who You Love
TTITLE9=Back On The Street Again
TTITLE10=Standing Knee Deep In A River
TTITLE11=Lone Star State Of Mind
TTITLE12=Why Get Up
TTITLE13=Broken Heartland
TTITLE14=Gettin' Back Together Tonight
TTITLE15=The Old Trail
TTITLE16=Learn To Let It Go
TTITLE17=In The Family
EXTD=
EXTT0=
EXTT1=
EXTT2=
EXTT3=
EXTT4=
EXTT5=
EXTT6=
EXTT7=
EXTT8=
EXTT9=
EXTT10=
EXTT11=
EXTT12=
EXTT13=
EXTT14=
EXTT15=
EXTT16=
EXTT17=
PLAYORDER=
